<svg xmlns="http://www.w3.org/2000/svg" xmlns:xlink="http://www.w3.org/1999/xlink" width="500" zoomAndPan="magnify" viewBox="0 0 375 374.999991" height="500" preserveAspectRatio="xMidYMid meet" version="1.0"><defs><clipPath id="a83db1e8ab"><path d="M 0 93.75 L 375 93.75 L 375 168.746094 L 0 168.746094 Z M 0 93.75 " clip-rule="nonzero"/></clipPath><clipPath id="fe4a3656fd"><path d="M 71 103 L 337.5 103 L 337.5 322.296875 L 71 322.296875 Z M 71 103 " clip-rule="nonzero"/></clipPath><clipPath id="86147bc71f"><path d="M 37.5 53.046875 L 290 53.046875 L 290 260 L 37.5 260 Z M 37.5 53.046875 " clip-rule="nonzero"/></clipPath></defs><rect x="-37.5" width="450" fill="#ffffff" y="-37.499999" height="449.999989" fill-opacity="1"/><rect x="-37.5" width="450" fill="#ffffff" y="-37.499999" height="449.999989" fill-opacity="1"/><rect x="-37.5" width="450" fill="#ffffff" y="-37.499999" height="449.999989" fill-opacity="1"/><g clip-path="url(#a83db1e8ab)"><path fill="#ffffff" d="M -17.375 93.75 L 429.109375 93.75 L 429.109375 169.335938 L -17.375 169.335938 Z M -17.375 93.75 " fill-opacity="1" fill-rule="nonzero"/></g><path fill="#000000" d="M 187.382812 214.59375 C 205.75 214.59375 220.695312 199.621094 220.695312 181.214844 C 220.695312 162.820312 205.75 147.855469 187.382812 147.855469 C 169.011719 147.855469 154.066406 162.820312 154.066406 181.214844 C 154.066406 199.621094 169.011719 214.59375 187.382812 214.59375 Z M 187.382812 152.621094 C 203.128906 152.621094 215.9375 165.445312 215.9375 181.214844 C 215.9375 196.992188 203.128906 209.828125 187.382812 209.828125 C 171.636719 209.828125 158.824219 196.992188 158.824219 181.214844 C 158.824219 165.445312 171.636719 152.621094 187.382812 152.621094 Z M 187.382812 152.621094 " fill-opacity="1" fill-rule="nonzero"/><g clip-path="url(#fe4a3656fd)"><path fill="#000000" d="M 337.277344 185.535156 C 337.441406 184.230469 336.515625 183.039062 335.210938 182.875 C 333.929688 182.710938 332.71875 183.640625 332.558594 184.945312 C 326.269531 235.515625 291.316406 278.386719 243.234375 294.839844 C 240.296875 287.328125 233.003906 281.980469 224.480469 281.980469 C 213.460938 281.980469 204.492188 290.875 204.316406 301.867188 C 197.5 302.0625 190.609375 301.765625 183.792969 300.917969 C 133.644531 294.675781 95.011719 254.046875 91.085938 203.886719 C 92.128906 203.707031 93.148438 203.460938 94.117188 203.089844 C 94.121094 203.089844 94.125 203.089844 94.128906 203.085938 C 94.207031 203.058594 94.28125 203.019531 94.359375 202.980469 C 100.828125 200.527344 105.164062 194.277344 105.164062 187.316406 C 105.164062 186.488281 105.089844 185.652344 104.957031 184.777344 C 104.957031 184.765625 104.957031 184.757812 104.957031 184.746094 C 104.957031 184.738281 104.953125 184.734375 104.949219 184.726562 C 104.945312 184.703125 104.949219 184.683594 104.945312 184.660156 C 103.964844 178.347656 99.546875 173.257812 93.667969 171.332031 C 104.316406 130.324219 143.5 103.550781 185.800781 108.832031 C 204.691406 111.167969 221.546875 121.375 232.449219 136.941406 C 228.96875 139.511719 226.808594 143.601562 226.808594 148.023438 C 226.808594 155.628906 232.992188 161.816406 240.585938 161.816406 C 241.445312 161.816406 242.308594 161.726562 243.15625 161.5625 C 244.707031 168.828125 245.035156 176.289062 244.105469 183.777344 C 241.785156 202.34375 229.714844 218.53125 212.601562 226.019531 C 211.398438 226.546875 210.847656 227.949219 211.375 229.15625 C 211.765625 230.050781 212.636719 230.585938 213.558594 230.585938 C 213.875 230.585938 214.199219 230.523438 214.507812 230.386719 C 233.148438 222.226562 246.296875 204.59375 248.824219 184.367188 C 249.851562 176.101562 249.445312 167.871094 247.648438 159.863281 C 251.785156 157.390625 254.367188 152.9375 254.367188 148.023438 C 254.367188 140.414062 248.183594 134.226562 240.585938 134.226562 C 239.277344 134.226562 237.992188 134.429688 236.746094 134.796875 C 225.085938 117.796875 206.847656 106.636719 186.382812 104.101562 C 141.5625 98.515625 100.070312 126.976562 88.964844 170.515625 C 86.027344 170.40625 83.011719 171.070312 80.347656 172.496094 C 74.914062 175.460938 71.539062 181.136719 71.539062 187.3125 C 71.539062 189.996094 72.207031 192.675781 73.457031 195.082031 C 73.464844 195.097656 73.46875 195.113281 73.476562 195.128906 C 73.488281 195.152344 73.496094 195.175781 73.507812 195.199219 C 76.089844 200.058594 80.820312 203.289062 86.320312 203.984375 C 90.300781 256.523438 130.71875 299.113281 183.207031 305.644531 C 188.945312 306.355469 194.738281 306.714844 200.496094 306.714844 C 201.933594 306.714844 203.371094 306.660156 204.804688 306.613281 C 206.839844 315.742188 214.9375 322.390625 224.476562 322.390625 C 235.589844 322.390625 244.632812 313.328125 244.632812 302.183594 C 244.632812 301.261719 244.550781 300.359375 244.429688 299.464844 C 294.402344 282.515625 330.757812 238.027344 337.277344 185.535156 Z M 94.84375 197.410156 C 94.542969 195.648438 94.511719 193.398438 95.675781 191.574219 C 96.863281 189.71875 98.78125 188.667969 100.347656 188.082031 C 100.097656 191.917969 98.03125 195.363281 94.84375 197.410156 Z M 81.148438 177.640625 C 82.324219 179.082031 83.882812 181.820312 82.976562 185.679688 C 82.089844 189.496094 78.960938 190.886719 77.03125 191.398438 C 76.558594 190.085938 76.300781 188.703125 76.300781 187.316406 C 76.300781 183.472656 78.128906 179.902344 81.148438 177.640625 Z M 224.480469 317.625 C 216.625 317.625 210.042969 311.734375 209.164062 303.921875 C 209.101562 303.363281 209.058594 302.765625 209.058594 302.183594 C 209.058594 293.671875 215.976562 286.746094 224.476562 286.746094 C 232.964844 286.746094 239.875 293.671875 239.875 302.183594 C 239.875 310.699219 232.96875 317.625 224.480469 317.625 Z M 224.480469 317.625 " fill-opacity="1" fill-rule="nonzero"/></g><g clip-path="url(#86147bc71f)"><path fill="#000000" d="M 119.710938 72.484375 C 121.953125 75.960938 125.839844 78.277344 130.269531 78.277344 C 137.210938 78.277344 142.859375 72.625 142.859375 65.675781 C 142.859375 65.265625 142.804688 64.847656 142.765625 64.4375 C 158.664062 60.480469 175.015625 59.472656 191.417969 61.507812 C 208.28125 63.609375 224.445312 69.804688 238.382812 79.394531 C 237.933594 80.039062 237.515625 80.695312 237.144531 81.375 C 237.144531 81.378906 237.144531 81.382812 237.140625 81.386719 C 237.136719 81.394531 237.132812 81.40625 237.128906 81.417969 C 235.390625 84.605469 234.472656 88.222656 234.472656 91.882812 C 234.472656 94.003906 234.777344 96.105469 235.378906 98.132812 C 237.382812 104.945312 242.570312 110.332031 249.261719 112.609375 C 249.3125 112.632812 249.359375 112.648438 249.414062 112.667969 C 249.441406 112.679688 249.46875 112.691406 249.5 112.703125 C 251.734375 113.449219 254.054688 113.828125 256.390625 113.828125 C 260.085938 113.828125 263.730469 112.875 266.949219 111.097656 C 266.992188 111.082031 267.03125 111.058594 267.070312 111.042969 C 267.117188 111.015625 267.167969 111 267.214844 110.972656 C 267.515625 110.800781 267.828125 110.597656 268.132812 110.402344 C 281.175781 131.117188 286.707031 155.769531 283.675781 180.128906 C 280.890625 202.546875 269.550781 222.539062 251.753906 236.417969 C 233.953125 250.296875 211.828125 256.410156 189.433594 253.617188 C 180.445312 252.503906 171.988281 249.652344 164.242188 245.179688 C 164.578125 244.53125 164.882812 243.867188 165.121094 243.179688 C 165.679688 241.550781 165.960938 239.871094 165.960938 238.183594 C 165.960938 233.519531 163.871094 229.191406 160.226562 226.308594 C 160.179688 226.269531 160.125 226.246094 160.078125 226.207031 C 160.050781 226.191406 160.027344 226.171875 160 226.15625 C 157.355469 224.132812 154.109375 223.007812 150.804688 223.007812 C 147.890625 223.007812 145.09375 223.839844 142.699219 225.371094 C 133.183594 211.753906 129.074219 195.261719 131.128906 178.648438 C 133.421875 160.121094 145.484375 143.933594 162.613281 136.40625 C 163.8125 135.875 164.359375 134.472656 163.835938 133.269531 C 163.304688 132.0625 161.902344 131.511719 160.699219 132.042969 C 142.042969 140.242188 128.90625 157.875 126.40625 178.0625 C 124.183594 196.042969 128.707031 213.886719 139.125 228.558594 C 136.902344 231.261719 135.644531 234.664062 135.644531 238.1875 C 135.644531 246.554688 142.445312 253.363281 150.804688 253.363281 C 154.804688 253.363281 158.554688 251.804688 161.394531 249.03125 C 169.816406 253.984375 179.035156 257.132812 188.84375 258.351562 C 192.59375 258.816406 196.332031 259.046875 200.046875 259.046875 C 219.785156 259.046875 238.851562 252.523438 254.675781 240.183594 C 273.476562 225.523438 285.457031 204.40625 288.398438 180.726562 C 291.585938 155.089844 285.703125 129.148438 271.871094 107.410156 C 273.339844 105.933594 274.625 104.242188 275.640625 102.40625 C 277.121094 99.660156 277.992188 96.691406 278.222656 93.644531 C 278.226562 93.59375 278.222656 93.539062 278.226562 93.492188 C 278.226562 93.464844 278.246094 93.441406 278.246094 93.410156 C 278.246094 93.390625 278.234375 93.378906 278.234375 93.363281 C 278.273438 92.878906 278.304688 92.394531 278.304688 91.886719 C 278.304688 85.375 275.453125 79.246094 270.484375 75.074219 C 270.484375 75.074219 270.484375 75.074219 270.484375 75.070312 C 270.484375 75.070312 270.480469 75.070312 270.480469 75.070312 C 264.496094 70.046875 255.902344 68.605469 248.625 71.355469 C 248.523438 71.398438 248.425781 71.441406 248.332031 71.492188 C 245.824219 72.460938 243.519531 73.9375 241.535156 75.78125 C 226.871094 65.582031 209.8125 59 192.007812 56.785156 C 174.96875 54.664062 157.964844 55.726562 141.441406 59.859375 C 139.308594 55.714844 135.066406 53.046875 130.269531 53.046875 C 123.328125 53.046875 117.679688 58.710938 117.679688 65.675781 C 117.679688 66.492188 117.773438 67.292969 117.925781 68.066406 C 74.410156 87.90625 43.839844 129.417969 37.960938 176.917969 C 37.796875 178.222656 38.722656 179.410156 40.027344 179.574219 C 40.128906 179.585938 40.222656 179.59375 40.320312 179.59375 C 41.507812 179.59375 42.53125 178.707031 42.679688 177.503906 C 48.351562 131.707031 77.792969 91.675781 119.710938 72.484375 Z M 161.089844 239.53125 C 159.597656 239.011719 157.753906 237.996094 157.320312 236.011719 C 156.902344 234.097656 157.8125 232.515625 158.707031 231.46875 C 160.296875 233.328125 161.203125 235.675781 161.203125 238.1875 C 161.203125 238.636719 161.148438 239.082031 161.089844 239.53125 Z M 267.296875 105.152344 C 267.242188 105.203125 267.183594 105.25 267.132812 105.304688 C 266.78125 105.574219 266.457031 105.804688 266.136719 106.027344 C 263.050781 103.699219 260.882812 101.140625 260.832031 99.664062 C 260.824219 99.488281 260.8125 99.191406 261.351562 98.769531 C 262.113281 98.183594 262.929688 98.492188 265.746094 100.492188 C 266.9375 101.335938 268.210938 102.226562 269.601562 102.851562 C 268.898438 103.691406 268.125 104.46875 267.296875 105.152344 Z M 251.84375 83.386719 C 254.230469 86.011719 254.882812 87 254.300781 88.078125 C 254.097656 88.449219 253.851562 88.6875 253.234375 88.746094 C 250.808594 88.96875 245.652344 85.902344 242.195312 82.261719 C 242.625 81.632812 243.089844 81.015625 243.605469 80.433594 C 244.761719 79.125 246.128906 78.039062 247.609375 77.160156 C 248.484375 79.660156 250.28125 81.671875 251.84375 83.386719 Z M 241.183594 99.792969 C 242.90625 99.960938 244.964844 100.480469 246.378906 101.882812 C 247.746094 103.253906 248.128906 105.265625 248.175781 106.933594 C 245.179688 105.308594 242.75 102.824219 241.183594 99.792969 Z M 273.464844 90.367188 C 271.710938 89.746094 269.613281 88.597656 268.898438 86.46875 C 268.179688 84.355469 268.734375 82.265625 269.421875 80.738281 C 271.730469 83.441406 273.148438 86.789062 273.464844 90.367188 Z M 273.464844 90.367188 " fill-opacity="1" fill-rule="nonzero"/></g><path fill="#000000" d="M 224.480469 292.558594 C 219.175781 292.558594 214.867188 296.878906 214.867188 302.183594 C 214.867188 307.492188 219.179688 311.8125 224.480469 311.8125 C 229.769531 311.8125 234.070312 307.492188 234.070312 302.183594 C 234.070312 296.878906 229.765625 292.558594 224.480469 292.558594 Z M 224.480469 292.558594 " fill-opacity="1" fill-rule="nonzero"/></svg>